<svg xmlns="http://www.w3.org/2000/svg" viewBox="0 0 32 32"><title>38-Speech Bubble</title><g id="_38-Speech_Bubble" data-name="38-Speech Bubble"><path d="M13,32a1,1,0,0,1-1-1V26H11A11,11,0,0,1,0,15V11A11,11,0,0,1,11,0H21A11,11,0,0,1,32,11v4A11,11,0,0,1,21,26H19.41l-5.71,5.71A1,1,0,0,1,13,32ZM11,2a9,9,0,0,0-9,9v4a9,9,0,0,0,9,9h2a1,1,0,0,1,1,1v3.59l4.29-4.29A1,1,0,0,1,19,24h2a9,9,0,0,0,9-9V11a9,9,0,0,0-9-9Z"/><path d="M16,15a2,2,0,1,1,2-2A2,2,0,0,1,16,15Zm0-2h0Z"/><path d="M23,15a2,2,0,1,1,2-2A2,2,0,0,1,23,15Zm0-2h0Z"/><path d="M9,15a2,2,0,1,1,2-2A2,2,0,0,1,9,15Zm0-2H9Z"/></g></svg>